<svg xmlns="http://www.w3.org/2000/svg" viewBox="0 0 480 320" width="480" height="320" role="img" aria-label="Blueprint schematic of Connector backshell (EEE) — synthetic">
  <rect width="480" height="320" fill="#071633"/>
  <g stroke="#2b6cb0" stroke-width="0.5" opacity="0.28"><line x1="0" y1="0" x2="0" y2="320" /><line x1="20" y1="0" x2="20" y2="320" /><line x1="40" y1="0" x2="40" y2="320" /><line x1="60" y1="0" x2="60" y2="320" /><line x1="80" y1="0" x2="80" y2="320" /><line x1="100" y1="0" x2="100" y2="320" /><line x1="120" y1="0" x2="120" y2="320" /><line x1="140" y1="0" x2="140" y2="320" /><line x1="160" y1="0" x2="160" y2="320" /><line x1="180" y1="0" x2="180" y2="320" /><line x1="200" y1="0" x2="200" y2="320" /><line x1="220" y1="0" x2="220" y2="320" /><line x1="240" y1="0" x2="240" y2="320" /><line x1="260" y1="0" x2="260" y2="320" /><line x1="280" y1="0" x2="280" y2="320" /><line x1="300" y1="0" x2="300" y2="320" /><line x1="320" y1="0" x2="320" y2="320" /><line x1="340" y1="0" x2="340" y2="320" /><line x1="360" y1="0" x2="360" y2="320" /><line x1="380" y1="0" x2="380" y2="320" /><line x1="400" y1="0" x2="400" y2="320" /><line x1="420" y1="0" x2="420" y2="320" /><line x1="440" y1="0" x2="440" y2="320" /><line x1="460" y1="0" x2="460" y2="320" /><line x1="480" y1="0" x2="480" y2="320" /><line x1="0" y1="0" x2="480" y2="0" /><line x1="0" y1="20" x2="480" y2="20" /><line x1="0" y1="40" x2="480" y2="40" /><line x1="0" y1="60" x2="480" y2="60" /><line x1="0" y1="80" x2="480" y2="80" /><line x1="0" y1="100" x2="480" y2="100" /><line x1="0" y1="120" x2="480" y2="120" /><line x1="0" y1="140" x2="480" y2="140" /><line x1="0" y1="160" x2="480" y2="160" /><line x1="0" y1="180" x2="480" y2="180" /><line x1="0" y1="200" x2="480" y2="200" /><line x1="0" y1="220" x2="480" y2="220" /><line x1="0" y1="240" x2="480" y2="240" /><line x1="0" y1="260" x2="480" y2="260" /><line x1="0" y1="280" x2="480" y2="280" /><line x1="0" y1="300" x2="480" y2="300" /><line x1="0" y1="320" x2="480" y2="320" /></g>
  <rect x="8" y="8" width="464" height="304" fill="none" stroke="#cfe8ff" stroke-width="1" opacity="0.5"/>
  <g><circle cx="240" cy="135" r="62" fill="none" stroke="#cfe8ff" stroke-width="2.5"/><circle cx="240" cy="135" r="48" fill="none" stroke="#fc3d21" stroke-width="2"/><circle cx="274.0" cy="135.0" r="4" fill="#cfe8ff"/><circle cx="269.4448429138199" cy="152.00003605232848" r="4" fill="#cfe8ff"/><circle cx="256.9999278952665" cy="164.44490535824048" r="4" fill="#cfe8ff"/><circle cx="239.99987511102648" cy="168.99999999977064" r="4" fill="#cfe8ff"/><circle cx="222.99985579083892" cy="164.4447804690021" r="4" fill="#cfe8ff"/><circle cx="210.55503219773627" cy="151.99981973797523" r="4" fill="#cfe8ff"/><circle cx="206.00000000091748" cy="134.999750222053" r="4" fill="#cfe8ff"/><circle cx="210.555281976213" cy="117.99974763423575" r="4" fill="#cfe8ff"/><circle cx="223.00028841954543" cy="105.5549697541103" r="4" fill="#cfe8ff"/><circle cx="240.00037466692052" cy="101.00000000206435" r="4" fill="#cfe8ff"/><circle cx="257.00036052213807" cy="105.5553444218254" r="4" fill="#cfe8ff"/><circle cx="269.4450926891184" cy="118.0003965772955" r="4" fill="#cfe8ff"/><circle cx="240" cy="135" r="6" fill="#fc3d21"/><rect x="296" y="120" width="44" height="30" rx="8" fill="none" stroke="#cfe8ff" stroke-width="2"/></g>
  <text x="20" y="40" font-family="Segoe UI, Arial, sans-serif" font-size="20" font-weight="700" fill="#eaf4ff">Connector backshell</text>
  <text x="20" y="298" font-family="monospace" font-size="12" fill="#7fa9d8">FAMILY: EEE  ·  REV —  ·  NTS</text>
  <text x="460" y="298" font-family="monospace" font-size="11" fill="#fc3d21" text-anchor="end" opacity="0.85">SYNTHETIC · NOT REAL NASA DATA</text>
  <path d="M420 20 h40 v40" fill="none" stroke="#fc3d21" stroke-width="1.5" opacity="0.7"/>
</svg>
