<svg xmlns="http://www.w3.org/2000/svg" viewBox="0 0 480 320" width="480" height="320" role="img" aria-label="Blueprint schematic of Inertial measurement unit (Avionics) — synthetic">
  <rect width="480" height="320" fill="#071633"/>
  <g stroke="#2b6cb0" stroke-width="0.5" opacity="0.28"><line x1="0" y1="0" x2="0" y2="320" /><line x1="20" y1="0" x2="20" y2="320" /><line x1="40" y1="0" x2="40" y2="320" /><line x1="60" y1="0" x2="60" y2="320" /><line x1="80" y1="0" x2="80" y2="320" /><line x1="100" y1="0" x2="100" y2="320" /><line x1="120" y1="0" x2="120" y2="320" /><line x1="140" y1="0" x2="140" y2="320" /><line x1="160" y1="0" x2="160" y2="320" /><line x1="180" y1="0" x2="180" y2="320" /><line x1="200" y1="0" x2="200" y2="320" /><line x1="220" y1="0" x2="220" y2="320" /><line x1="240" y1="0" x2="240" y2="320" /><line x1="260" y1="0" x2="260" y2="320" /><line x1="280" y1="0" x2="280" y2="320" /><line x1="300" y1="0" x2="300" y2="320" /><line x1="320" y1="0" x2="320" y2="320" /><line x1="340" y1="0" x2="340" y2="320" /><line x1="360" y1="0" x2="360" y2="320" /><line x1="380" y1="0" x2="380" y2="320" /><line x1="400" y1="0" x2="400" y2="320" /><line x1="420" y1="0" x2="420" y2="320" /><line x1="440" y1="0" x2="440" y2="320" /><line x1="460" y1="0" x2="460" y2="320" /><line x1="480" y1="0" x2="480" y2="320" /><line x1="0" y1="0" x2="480" y2="0" /><line x1="0" y1="20" x2="480" y2="20" /><line x1="0" y1="40" x2="480" y2="40" /><line x1="0" y1="60" x2="480" y2="60" /><line x1="0" y1="80" x2="480" y2="80" /><line x1="0" y1="100" x2="480" y2="100" /><line x1="0" y1="120" x2="480" y2="120" /><line x1="0" y1="140" x2="480" y2="140" /><line x1="0" y1="160" x2="480" y2="160" /><line x1="0" y1="180" x2="480" y2="180" /><line x1="0" y1="200" x2="480" y2="200" /><line x1="0" y1="220" x2="480" y2="220" /><line x1="0" y1="240" x2="480" y2="240" /><line x1="0" y1="260" x2="480" y2="260" /><line x1="0" y1="280" x2="480" y2="280" /><line x1="0" y1="300" x2="480" y2="300" /><line x1="0" y1="320" x2="480" y2="320" /></g>
  <rect x="8" y="8" width="464" height="304" fill="none" stroke="#cfe8ff" stroke-width="1" opacity="0.5"/>
  <g><rect x="222" y="117" width="36" height="36" fill="none" stroke="#cfe8ff" stroke-width="2.5"/><ellipse cx="240" cy="135" rx="80" ry="30" fill="none" stroke="#cfe8ff" stroke-width="2"/><ellipse cx="240" cy="135" rx="30" ry="80" fill="none" stroke="#cfe8ff" stroke-width="2"/><ellipse cx="240" cy="135" rx="58" ry="58" fill="none" stroke="#fc3d21" stroke-width="2"/></g>
  <text x="20" y="40" font-family="Segoe UI, Arial, sans-serif" font-size="20" font-weight="700" fill="#eaf4ff">Inertial measurement unit</text>
  <text x="20" y="298" font-family="monospace" font-size="12" fill="#7fa9d8">FAMILY: AVIONICS  ·  REV —  ·  NTS</text>
  <text x="460" y="298" font-family="monospace" font-size="11" fill="#fc3d21" text-anchor="end" opacity="0.85">SYNTHETIC · NOT REAL NASA DATA</text>
  <path d="M420 20 h40 v40" fill="none" stroke="#fc3d21" stroke-width="1.5" opacity="0.7"/>
</svg>
